# xmcd
#
# Track frame offsets:
#	150
#	19636
#	39336
#	56267
#	69431
#	80700
#	99939
#	119186
#	133806
#	151855
#	165879
#	184942
#	208558
#
# Disc length: 2981 seconds
# Revision: 0
# Processed by: cddbd v1.5.2PL0 Copyright (c) Steve Scherf et al.
# Submitted via: dBpowerAMP V12.0
#
DISCID=a40ba30d
DTITLE=Finn Arne Lauvås - Nåde
DYEAR=1900
DGENRE=
TTITLE0=Grip Anledningen
TTITLE1=Du Er Lyset På Min Vei
TTITLE2=Den Gjennomstungne Hånd
TTITLE3=På Hellig Grunn
TTITLE4=På de Himmelske Høyder
TTITLE5=Hele Veien
TTITLE6=Takk
TTITLE7=Med Løftende Hender
TTITLE8=La Basunen Lyde Klart
TTITLE9=Hvilken Nåde
TTITLE10=Fest I Mitt Liv
TTITLE11=Røsten Fra Himmelen
TTITLE12=Du Evige Klippe
EXTD=
EXTT0=
EXTT1=
EXTT2=
EXTT3=
EXTT4=
EXTT5=
EXTT6=
EXTT7=
EXTT8=
EXTT9=
EXTT10=
EXTT11=
EXTT12=
PLAYORDER=
